<svg width="164" height="21" viewBox="0 0 164 21" fill="none" xmlns="http://www.w3.org/2000/svg">
<path d="M111.521 9.25543H100.056L101.928 6.0273C102.708 4.67783 103.41 4.20155 104.554 4.20155C105.723 4.20155 106.113 5.15411 105.49 6.31836H117.189L118.359 4.20155C119.216 2.61395 119.217 0.894043 117.111 0.894043H96.4942C94.6223 0.894043 93.1664 1.13218 92.0745 2.95793L88.4348 9.25543C87.4208 11.0812 87.4988 12.5629 89.9947 12.5629H101.85L99.9259 16.0292C99.38 16.9818 98.678 17.6168 97.0661 17.6168C95.6622 17.6168 95.7402 16.6642 96.3642 15.7381H84.743L83.3391 18.0931C82.4812 19.6013 83.1832 20.9243 85.211 20.9243H105.672C107.543 20.9243 109.155 20.0511 110.091 18.49L113.575 12.5629C114.303 11.0812 113.913 9.25543 111.521 9.25543Z" fill="white"/>
<path d="M161.308 4.78369C160.372 4.78369 159.592 5.551 159.592 6.47705C159.592 7.42957 160.372 8.17041 161.308 8.17041C162.244 8.17041 163.024 7.40311 163.024 6.47705C162.998 5.551 162.244 4.78369 161.308 4.78369ZM161.308 7.85291C160.528 7.85291 159.93 7.24435 159.93 6.47705C159.93 5.73621 160.554 5.12766 161.308 5.12766C162.062 5.12766 162.686 5.73621 162.686 6.47705C162.686 7.24435 162.062 7.85291 161.308 7.85291Z" fill="white"/>
<path d="M85.1076 0.894043H67.5849C65.1931 0.894043 62.0733 0.894043 60.2274 4.20155L52.48 17.6168C51.3881 19.4426 52.324 20.9243 54.3518 20.9243H74.7084C76.7882 20.9243 78.1141 20.2893 79.752 17.6168L87.4995 4.20155C88.5134 2.48165 86.9535 0.894043 85.1076 0.894043ZM75.2543 6.0273L69.4568 16.0292C68.6768 17.458 67.9749 17.6168 66.207 17.6168C64.4131 17.6168 63.9711 16.9818 64.4911 16.0292L70.3667 6.0273C71.2246 4.51907 72.2386 4.20155 73.6944 4.20155C75.1763 4.20155 76.0343 4.67783 75.2543 6.0273Z" fill="white"/>
<path d="M54.4029 0.894043H31.9406L22.2693 17.6168H0.872803V20.9243H44.0297C46.8895 20.9243 47.8254 19.4955 48.4494 18.4106L50.7632 14.3093C51.3871 13.198 51.3871 11.9544 50.1392 11.2399C51.3871 11.2399 53.077 10.3667 54.091 8.56746L56.4048 4.54553C57.6007 2.56103 56.1968 0.894043 54.4029 0.894043ZM42.8598 14.3887L41.6898 16.2673C41.3779 16.9024 40.8319 17.6168 39.532 17.6168H33.7864L36.7502 12.5629H42.3138C43.3277 12.5629 43.3277 13.5155 42.8598 14.3887ZM47.7474 6.0273L46.5775 7.93242C46.2655 8.56746 45.7196 9.28189 44.4197 9.28189H38.6741L41.6119 4.22801H47.2015C48.2154 4.20155 48.2154 5.15411 47.7474 6.0273Z" fill="white"/>
<path d="M162.166 6.02712C162.166 5.86834 162.088 5.70956 161.958 5.63017C161.802 5.55078 161.646 5.55078 161.49 5.55078H160.658V7.42969H160.944V6.55639H161.282L161.828 7.42969H162.14L161.568 6.55639C161.906 6.55639 162.166 6.39761 162.166 6.02712ZM161.256 6.31822H160.944V5.73603H161.438C161.672 5.73603 161.88 5.76249 161.88 6.00066C161.88 6.37115 161.516 6.31822 161.256 6.31822Z" fill="white"/>
<path d="M133.567 4.20155H162.633V0.894043H123.896L112.353 20.9243H139.313L141.237 17.6168H125.82L128.758 12.5629H144.175L146.047 9.25543H130.708L133.567 4.20155Z" fill="white"/>
</svg>
