<svg width="25" height="23" viewBox="0 0 25 23" fill="none" xmlns="http://www.w3.org/2000/svg">
<path d="M19.4523 17.7393C18.0374 17.7393 16.8853 18.91 16.8853 20.3479C16.8853 21.7858 18.0373 22.9567 19.4523 22.9567C20.8673 22.9567 22.0194 21.7859 22.0194 20.3479C22.0194 18.91 20.8673 17.7393 19.4523 17.7393ZM19.4523 21.9132C18.6031 21.9132 17.9121 21.2109 17.9121 20.3479C17.9121 19.485 18.6031 18.7827 19.4523 18.7827C20.3015 18.7827 20.9926 19.485 20.9926 20.3479C20.9926 21.2109 20.3015 21.9132 19.4523 21.9132Z" fill="white"/>
<path d="M9.18426 17.7393C7.7693 17.7393 6.61719 18.91 6.61719 20.3479C6.61719 21.7858 7.7693 22.9567 9.18426 22.9567C10.5992 22.9567 11.7513 21.7859 11.7513 20.348C11.7513 18.9101 10.5993 17.7393 9.18426 17.7393ZM9.18426 21.9132C8.33505 21.9132 7.64401 21.2109 7.64401 20.3479C7.64401 19.485 8.33505 18.7827 9.18426 18.7827C10.0335 18.7827 10.7245 19.485 10.7245 20.3479C10.7245 21.2109 10.0335 21.9132 9.18426 21.9132Z" fill="white"/>
<path d="M21.5059 15.6522H9.65532C8.43647 15.6522 7.37785 14.7704 7.13859 13.5548L4.55307 0.419479C4.50479 0.175305 4.29431 0 4.04994 0H0.969481C0.686079 0 0.456055 0.233756 0.456055 0.521756C0.456055 0.809757 0.686079 1.04351 0.969481 1.04351H3.62893L6.13128 13.7604C6.46604 15.4612 7.94875 16.6957 9.65532 16.6957H21.5059C21.7893 16.6957 22.0193 16.462 22.0193 16.174C22.0193 15.886 21.7893 15.6522 21.5059 15.6522Z" fill="white"/>
<path d="M23.9443 3.30695C23.8468 3.19528 23.7072 3.13062 23.5593 3.13062H5.07689C4.7935 3.13062 4.56348 3.36437 4.56348 3.65237C4.56348 3.94037 4.7935 4.17408 5.07689 4.17408H22.9781L22.2481 10.1073C22.1516 10.8889 21.4944 11.4784 20.7192 11.4784H6.61709C6.3337 11.4784 6.10368 11.7122 6.10368 12.0002C6.10368 12.2882 6.3337 12.5219 6.61709 12.5219H20.7192C22.0109 12.5219 23.1065 11.54 23.2667 10.2367L24.0686 3.71703C24.0871 3.56883 24.0419 3.41857 23.9443 3.30695Z" fill="white"/>
</svg>
