<svg width="163" height="20" viewBox="0 0 163 20" fill="none" xmlns="http://www.w3.org/2000/svg">
<path d="M111.3 8.34875H99.835L101.707 5.1255C102.487 3.77807 103.189 3.30251 104.333 3.30251C105.503 3.30251 105.893 4.25363 105.269 5.41612H116.968L118.138 3.30251C118.996 1.71731 118.996 0 116.89 0H96.2732C94.4014 0 92.9455 0.237781 91.8536 2.06077L88.2138 8.34875C87.1999 10.1717 87.2779 11.6513 89.7737 11.6513H101.629L99.705 15.1123C99.159 16.0634 98.4571 16.6975 96.8452 16.6975C95.4413 16.6975 95.5193 15.7464 96.1432 14.8217H84.5221L83.1182 17.1731C82.2603 18.679 82.9622 20 84.9901 20H105.451C107.322 20 108.934 19.1281 109.87 17.5694L113.354 11.6513C114.082 10.1717 113.692 8.34875 111.3 8.34875Z" fill="black"/>
<path d="M161.087 3.88403C160.151 3.88403 159.371 4.65022 159.371 5.57492C159.371 6.52604 160.151 7.2658 161.087 7.2658C162.023 7.2658 162.803 6.49962 162.803 5.57492C162.777 4.65022 162.023 3.88403 161.087 3.88403ZM161.087 6.94876C160.307 6.94876 159.709 6.3411 159.709 5.57492C159.709 4.83516 160.333 4.22749 161.087 4.22749C161.841 4.22749 162.465 4.83516 162.465 5.57492C162.465 6.3411 161.841 6.94876 161.087 6.94876Z" fill="black"/>
<path d="M84.8869 0H67.3642C64.9724 0 61.8526 0 60.0067 3.30251L52.2593 16.6975C51.1674 18.5205 52.1033 20 54.1311 20H74.4877C76.5675 20 77.8934 19.3659 79.5313 16.6975L87.2787 3.30251C88.2927 1.5852 86.7328 0 84.8869 0ZM75.0336 5.1255L69.236 15.1123C68.4561 16.539 67.7542 16.6975 65.9863 16.6975C64.1924 16.6975 63.7504 16.0634 64.2704 15.1123L70.146 5.1255C71.0039 3.61955 72.0178 3.30251 73.4737 3.30251C74.9556 3.30251 75.8136 3.77807 75.0336 5.1255Z" fill="black"/>
<path d="M54.1822 0H31.7198L22.0485 16.6975H0.6521V20H43.8089C46.6687 20 47.6046 18.5733 48.2286 17.4901L50.5424 13.395C51.1664 12.2853 51.1664 11.0436 49.9185 10.3303C51.1664 10.3303 52.8563 9.45839 53.8702 7.66182L56.184 3.64597C57.3799 1.66447 55.976 0 54.1822 0ZM42.639 13.4742L41.4691 15.3501C41.1571 15.9841 40.6112 16.6975 39.3112 16.6975H33.5657L36.5295 11.6513H42.093C43.107 11.6513 43.107 12.6024 42.639 13.4742ZM47.5266 5.1255L46.3567 7.02774C46.0448 7.66182 45.4988 8.37517 44.1989 8.37517H38.4533L41.3911 3.32893H46.9807C47.9946 3.30251 47.9946 4.25363 47.5266 5.1255Z" fill="black"/>
<path d="M161.945 5.12571C161.945 4.96719 161.867 4.80867 161.737 4.72941C161.581 4.65015 161.425 4.65015 161.269 4.65015H160.437V6.52597H160.723V5.65411H161.061L161.607 6.52597H161.919L161.347 5.65411C161.685 5.65411 161.945 5.49559 161.945 5.12571ZM161.035 5.41633H160.723V4.83509H161.217C161.451 4.83509 161.659 4.86151 161.659 5.09929C161.659 5.46917 161.295 5.41633 161.035 5.41633Z" fill="black"/>
<path d="M133.347 3.30251H162.413V0H123.675L112.132 20H139.092L141.016 16.6975H125.599L128.537 11.6513H143.954L145.826 8.34875H130.487L133.347 3.30251Z" fill="black"/>
</svg>
