<svg width="25" height="24" viewBox="0 0 25 24" fill="none" xmlns="http://www.w3.org/2000/svg">
<path d="M23.8944 22.5474L23.8945 22.5474C24.1765 22.834 24.1765 23.2998 23.8946 23.5864C23.754 23.7292 23.5708 23.8 23.3878 23.8C23.2047 23.8 23.0216 23.7292 22.8812 23.5864L22.8811 23.5864L17.1175 17.7292L16.9874 17.5971L16.8458 17.7167C15.1574 19.1436 12.9903 20.0024 10.6295 20.0024C5.26213 20.0024 0.889697 15.5638 0.889697 10.1016C0.889697 4.63894 5.26215 0.2 10.6295 0.2C15.9967 0.2 20.3692 4.63894 20.3692 10.1016C20.3692 12.5034 19.5231 14.7072 18.1187 16.4234L18.005 16.5624L18.1309 16.6904L23.8944 22.5474ZM10.6295 1.66621C6.04774 1.66621 2.32607 5.45317 2.32607 10.1016C2.32607 14.7496 6.04776 18.5362 10.6295 18.5362C15.2111 18.5362 18.9327 14.7496 18.9327 10.1016C18.9327 5.45318 15.2111 1.66621 10.6295 1.66621Z" fill="white" stroke="#191919" stroke-width="0.4"/>
</svg>
